<?xml version="1.0" standalone="no"?>
<!DOCTYPE svg PUBLIC "-//W3C//DTD SVG 20010904//EN"
 "http://www.w3.org/TR/2001/REC-SVG-20010904/DTD/svg10.dtd">
<svg version="1.0" xmlns="http://www.w3.org/2000/svg"
 width="512.000000pt" height="512.000000pt" viewBox="0 0 512.000000 512.000000"
 preserveAspectRatio="xMidYMid meet">

<g transform="translate(0.000000,512.000000) scale(0.100000,-0.100000)"
fill="#000000" stroke="none">
<path d="M590 4880 l0 -240 -98 0 c-162 0 -255 -34 -352 -126 -65 -62 -103
-125 -125 -209 -18 -70 -21 -432 -4 -504 39 -172 190 -313 365 -341 33 -6 161
-10 287 -10 l227 0 0 835 0 835 -150 0 -150 0 0 -240z m0 -835 l0 -295 -83 0
c-100 0 -159 25 -189 80 -17 32 -18 54 -16 227 3 176 5 194 24 220 35 47 78
63 177 63 l87 0 0 -295z"/>
<path d="M1060 4970 l0 -150 150 0 150 0 0 150 0 150 -150 0 -150 0 0 -150z"/>
<path d="M1067 4633 c-4 -3 -7 -279 -7 -612 0 -583 -1 -607 -20 -638 -33 -56
-62 -67 -177 -71 l-103 -4 0 -149 0 -149 88 0 c181 0 290 40 385 139 34 36 71
88 90 128 l32 68 3 648 3 647 -144 0 c-79 0 -147 -3 -150 -7z"/>
<path d="M1600 4490 l0 -150 148 0 c129 0 151 -3 180 -20 47 -29 40 -40 -25
-40 -228 -1 -394 -125 -439 -327 -21 -94 -10 -177 36 -269 39 -80 128 -164
207 -195 54 -22 74 -24 316 -27 l258 -3 -3 433 -3 433 -32 67 c-58 123 -166
211 -291 237 -29 6 -120 11 -202 11 l-150 0 0 -150z m380 -620 l0 -110 -79 0
c-90 0 -122 17 -141 74 -14 43 -5 77 28 109 32 30 48 34 130 36 l62 1 0 -110z"/>
<path d="M2410 4051 l0 -591 150 0 150 0 0 440 0 440 66 0 c39 0 79 -6 99 -16
64 -30 65 -38 65 -473 l0 -391 151 0 150 0 -3 428 c-3 406 -4 429 -24 478 -47
115 -133 202 -241 245 -54 22 -75 24 -310 27 l-253 4 0 -591z"/>
<path d="M3665 4626 c-120 -29 -222 -115 -278 -234 l-32 -67 -3 -247 c-5 -335
11 -394 138 -512 82 -75 144 -98 283 -104 l109 -4 -7 -27 c-8 -33 -34 -69 -69
-95 -25 -19 -44 -21 -197 -24 l-169 -3 0 -150 0 -149 159 0 c87 0 182 5 212
10 180 34 325 179 359 359 6 33 10 289 10 657 l0 604 -232 -1 c-146 0 -252 -5
-283 -13z m215 -576 l0 -290 -78 0 c-86 0 -112 11 -137 60 -22 42 -22 418 0
460 23 44 60 59 143 60 l72 0 0 -290z"/>
<path d="M4603 4625 c-79 -22 -131 -51 -188 -109 -58 -58 -100 -136 -115 -215
-16 -87 -13 -456 5 -524 38 -148 132 -249 276 -297 81 -28 195 -24 282 9 84
33 167 114 214 209 l38 76 3 240 c3 164 0 259 -8 296 -51 231 -283 375 -507
315z m157 -300 c55 -28 60 -53 60 -277 0 -185 -2 -206 -20 -236 -46 -74 -162
-67 -196 13 -21 52 -20 404 2 450 27 57 97 79 154 50z"/>
<path d="M0 1355 l0 -1355 2560 0 2560 0 0 1355 0 1355 -2560 0 -2560 0 0
-1355z m620 1028 c-5 -16 -14 -62 -19 -104 -16 -133 -61 -169 -211 -169 l-90
0 0 150 0 150 164 0 165 0 -9 -27z m810 5 c57 -39 70 -66 80 -163 21 -203 162
-363 358 -404 38 -8 475 -11 1502 -11 l1450 0 0 -755 0 -755 -2260 0 -2260 0
0 755 0 755 95 0 c161 0 262 33 353 115 89 80 152 208 152 310 0 24 5 56 11
72 12 33 56 82 84 93 11 5 106 9 211 9 182 1 193 0 224 -21z m3390 -128 l0
-150 -1448 0 c-1389 0 -1449 1 -1482 19 -53 28 -76 69 -84 150 -4 39 -11 84
-16 101 l-9 30 1520 0 1519 0 0 -150z"/>
<path d="M600 1360 l0 -150 150 0 150 0 0 150 0 150 -150 0 -150 0 0 -150z"/>
<path d="M1210 1360 l0 -150 450 0 450 0 0 150 0 150 -450 0 -450 0 0 -150z"/>
<path d="M2410 1360 l0 -150 150 0 150 0 0 150 0 150 -150 0 -150 0 0 -150z"/>
<path d="M3010 1360 l0 -150 450 0 450 0 0 150 0 150 -450 0 -450 0 0 -150z"/>
<path d="M4220 1360 l0 -150 150 0 150 0 0 150 0 150 -150 0 -150 0 0 -150z"/>
<path d="M607 903 c-4 -3 -7 -71 -7 -150 l0 -143 455 0 456 0 -3 148 -3 147
-446 3 c-245 1 -449 -1 -452 -5z"/>
<path d="M1810 760 l0 -150 750 0 750 0 0 150 0 150 -750 0 -750 0 0 -150z"/>
<path d="M3617 903 c-4 -3 -7 -71 -7 -150 l0 -143 455 0 456 0 -3 148 -3 147
-446 3 c-245 1 -449 -1 -452 -5z"/>
</g>
</svg>
